# xmcd
#
# Track frame offsets:
#	150
#	11908
#	24962
#	36875
#	50033
#	63090
#	77271
#	89353
#	103074
#	114807
#
# Disc length: 1658 seconds
#
# Revision: 2
# Processed by: cddbd v1.5.2PL0 Copyright (c) Steve Scherf et al.
# Submitted via: audiograbber 1.83.01
#
DISCID=6e06780a
DTITLE=Various Artist - Tamla Special  1
DYEAR=1900
DGENRE=Motown
TTITLE0=Barrett Strong - Money (That's What I Want)
TTITLE1=The Miracles - Way Over There
TTITLE2=Mary Wells - Shop Around
TTITLE3=Mary Wells - Bye Bye Baby
TTITLE4=Singin' Sammy Ward - Oh Lover
TTITLE5=The Miracles - You Can Depend On Me
TTITLE6=Mary Wells - Please Forgive Me
TTITLE7=The Miracles - Who's Loving You
TTITLE8=Barrett Strong - Oh I Apologize
TTITLE9=Singin' Sammy Ward and Sherri Taylor - That's Why I Love You So Much
EXTD=
EXTT0=
EXTT1=
EXTT2=
EXTT3=
EXTT4=
EXTT5=
EXTT6=
EXTT7=
EXTT8=
EXTT9=
PLAYORDER=
